<?xml version="1.0" encoding="UTF-8"?>
<svg xmlns="http://www.w3.org/2000/svg" id="Layer_1" data-name="Layer 1" viewBox="0 0 24 24" width="512" height="512"><path d="m6,9.5c0-.828.672-1.5,1.5-1.5s1.5.672,1.5,1.5-.672,1.5-1.5,1.5-1.5-.672-1.5-1.5Zm16,.985v8.515c0,2.757-2.243,5-5,5H7c-2.757,0-5-2.243-5-5V5C2,2.243,4.243,0,7,0h4.515c1.87,0,3.627.728,4.95,2.05l3.485,3.485c1.322,1.322,2.05,3.08,2.05,4.95Zm-6.95-7.021c-.318-.318-.671-.587-1.05-.805v4.341c0,.551.449,1,1,1h4.341c-.218-.379-.487-.733-.805-1.05l-3.485-3.485Zm-11.05,15.536c0,.028.001.056.002.084l5.06-5.06c1.344-1.345,3.532-1.345,4.876,0l.615.615c.522.521,1.371.521,1.894,0l3.553-3.553v-.601c0-.163-.008-.325-.023-.485h-4.977c-1.654,0-3-1.346-3-3V2.023c-.16-.015-.322-.023-.485-.023h-4.515c-1.654,0-3,1.346-3,3v14Zm16,0v-5.086l-2.139,2.139c-1.302,1.302-3.42,1.302-4.722,0l-.615-.615c-.564-.564-1.483-.564-2.048,0l-5.638,5.638c.546.569,1.313.924,2.162.924h10c1.654,0,3-1.346,3-3Z"/></svg>
