<?xml version="1.0" encoding="UTF-8"?>
<svg xmlns="http://www.w3.org/2000/svg" id="Layer_1" data-name="Layer 1" viewBox="0 0 24 24">
  <path d="m2.907,8.133L.322,5.732c-.405-.375-.428-1.008-.052-1.413.375-.404,1.007-.428,1.413-.052l2.317,2.152V1c0-.552.448-1,1-1s1,.448,1,1v5.421l2.317-2.153c.403-.376,1.037-.354,1.413.052.376.405.353,1.038-.052,1.413l-2.611,2.426c-.561.562-1.307.844-2.058.844-.759,0-1.522-.289-2.103-.869Zm20.821-3.813c-.376-.405-1.01-.428-1.413-.052l-2.317,2.153V1c0-.552-.448-1-1-1s-1,.448-1,1v5.42l-2.317-2.152c-.405-.376-1.037-.353-1.413.052-.376.405-.353,1.038.052,1.413l2.585,2.4c.58.581,1.344.869,2.103.869.75,0,1.497-.282,2.058-.843l2.611-2.426c.405-.376.428-1.008.052-1.413Zm-2.127,13.616c.617,1.327.516,2.856-.271,4.09-.789,1.236-2.135,1.975-3.603,1.975H6.278c-1.468,0-2.814-.738-3.603-1.975-.787-1.233-.889-2.763-.271-4.09.022-.048,5.847-8.668,5.873-8.698,1.203-1.392,2.054-2.237,3.724-2.237,1.435,0,2.672.756,3.782,2.31,0,0,5.796,8.578,5.819,8.625Zm-7.124,4.064l-1.974-3.644c-.154-.327-.401-.356-.501-.356s-.348.029-.474.302l-2.001,3.698h4.951Zm5.34-3.154l-5.677-8.395c-.917-1.284-1.626-1.451-2.14-1.451-.692,0-1.025.178-2.173,1.5l-5.64,8.345c-.299.697-.237,1.46.174,2.104.426.667,1.125,1.05,1.917,1.05h.974l2.489-4.597c.391-.845,1.268-1.403,2.26-1.403s1.87.559,2.288,1.458l2.464,4.542h.974c.792,0,1.491-.383,1.917-1.05.411-.645.473-1.407.174-2.104Z"/>
</svg>
