<?xml version="1.0" encoding="UTF-8"?>
<svg xmlns="http://www.w3.org/2000/svg" id="Layer_1" data-name="Layer 1" viewBox="0 0 24 24">
  <path d="m.27,5.319c.374-.405,1.009-.429,1.413-.052l2.317,2.153V1c0-.552.447-1,1-1s1,.448,1,1v6.421l2.317-2.154c.404-.377,1.036-.353,1.413.052.376.405.353,1.038-.052,1.413l-2.611,2.426c-.561.562-1.308.844-2.058.844-.76,0-1.523-.289-2.104-.869L.321,6.732c-.404-.375-.428-1.008-.052-1.413Zm23.059,16.705c-.789,1.237-2.137,1.976-3.604,1.976H1c-.553,0-1-.447-1-1s.447-1,1-1h3.656c-.772-1.229-.867-2.747-.254-4.064.022-.048,5.846-8.668,5.871-8.699,1.204-1.392,2.056-2.237,3.725-2.237,1.436,0,2.673.756,3.782,2.31,0,0,5.795,8.578,5.817,8.625.618,1.326.517,2.855-.27,4.089Zm-6.852-.024l-1.975-3.644c-.154-.327-.401-.356-.502-.356s-.348.029-.475.302l-2.001,3.698h4.953Zm5.339-3.154l-5.677-8.395c-.917-1.284-1.626-1.451-2.14-1.451-.691,0-1.025.178-2.173,1.5l-5.64,8.345c-.3.697-.237,1.46.173,2.104.426.668,1.125,1.051,1.918,1.051h.973l2.49-4.597c.391-.845,1.268-1.403,2.26-1.403s1.869.559,2.287,1.458l2.464,4.542h.974c.793,0,1.492-.383,1.918-1.051.41-.644.473-1.406.173-2.104Z"/>
</svg>
