<?xml version="1.0" encoding="UTF-8"?>
<svg xmlns="http://www.w3.org/2000/svg" id="Layer_1" data-name="Layer 1" viewBox="0 0 24 24" width="512" height="512"><path d="M3,22.5c0,.828-.672,1.5-1.5,1.5s-1.5-.672-1.5-1.5,.672-1.5,1.5-1.5,1.5,.672,1.5,1.5Zm3-5.5c-1.105,0-2,.895-2,2s.895,2,2,2,2-.895,2-2-.895-2-2-2Zm17.962-6.315c-.258,2.315-1.949,4.343-4.207,5.044-1.154,.359-2.315,.363-3.452,.014-.285-.089-.597-.042-.817,.12-1.023,.744-2.229,1.138-3.485,1.138-2.067,0-3.963-1.045-5.071-2.794-.099-.156-.252-.249-.424-.257-.279-.013-.548-.037-.702-.068-3.177-.645-5.249-3.672-4.719-6.892,.382-2.333,2.179-4.27,4.472-4.817,.867-.205,1.736-.228,2.583-.062,.288,.053,.618-.05,.852-.276,1.217-1.183,2.818-1.833,4.51-1.833,2.546,0,4.869,1.502,5.918,3.826,.112,.247,.335,.442,.627,.548,2.615,.946,4.226,3.541,3.917,6.311Zm-4.598-4.43h0c-.804-.291-1.431-.861-1.768-1.605-.727-1.609-2.334-2.649-4.096-2.649-1.168,0-2.274,.45-3.116,1.268-.704,.686-1.687,.988-2.625,.805-.25-.048-.503-.072-.758-.072-.325,0-.652,.039-.981,.117-1.518,.363-2.709,1.647-2.962,3.196-.354,2.154,1.025,4.178,3.142,4.606,.088,.018,.238,.024,.396,.031,.824,.038,1.579,.481,2.023,1.187,.738,1.165,2.003,1.862,3.381,1.862,.831,0,1.63-.261,2.308-.755,.733-.532,1.7-.687,2.584-.415,.746,.23,1.508,.226,2.27-.012,1.512-.469,2.642-1.817,2.812-3.355,.206-1.848-.867-3.577-2.609-4.208Z"/></svg>
