<?xml version="1.0" encoding="utf-8"?>
<!-- Generator: Adobe Illustrator 27.0.0, SVG Export Plug-In . SVG Version: 6.00 Build 0)  -->
<svg version="1.1" id="图层_1" xmlns="http://www.w3.org/2000/svg" xmlns:xlink="http://www.w3.org/1999/xlink" x="0px" y="0px"
	 viewBox="0 0 64 64" style="enable-background:new 0 0 64 64;" xml:space="preserve">
<g>
	<path d="M62,31.56l-7.39-7.95l-13.35-6.64c-0.91-0.46-2.01-0.1-2.47,0.81c-0.46,0.91-0.1,2.01,0.81,2.47l7.27,3.69L32,30.84
		l-14.86-6.9l7.64-3.87c0.91-0.46,1.27-1.56,0.81-2.47v0c-0.46-0.91-1.56-1.27-2.47-0.81L9.44,23.61L2,31.56
		c-0.39,0.43-0.26,1.12,0.27,1.38l20.95,10.1c0.34,0.16,0.75,0.09,1.01-0.18l5.78-6.03v20.06L14.36,49.3
		c-0.63-0.3-1.03-0.94-1.03-1.64v-4.6c0-1.02-0.82-1.84-1.84-1.84s-1.84,0.82-1.84,1.84v6.9c0,0.7,0.4,1.33,1.03,1.64l19.33,9.37
		l1.04,0.51c0.5,0.24,1.09,0.24,1.59,0l1.04-0.51l19.33-9.37c0.63-0.3,1.03-0.94,1.03-1.64V36.64l7.69-3.71
		C62.26,32.68,62.39,31.99,62,31.56z M23.42,38.39c-0.26,0.27-0.67,0.35-1.01,0.18L8.3,31.76c-0.53-0.25-0.66-0.94-0.27-1.38
		l4.56-4.81l16.02,7.44L23.42,38.39z M50.36,47.66c0,0.7-0.4,1.33-1.03,1.64l-15.65,7.59V36.51l6.08,6.34
		c0.26,0.27,0.67,0.35,1.01,0.18l9.58-4.62V47.66z M55.7,31.76l-14.11,6.81c-0.34,0.16-0.75,0.09-1.01-0.18l-5.08-5.55l16.02-7.44
		l4.45,4.99C56.36,30.82,56.23,31.51,55.7,31.76z"/>
	<path d="M27.38,12.63l0.17-0.11c0.63-0.41,0.87-1.18,0.69-1.91c-0.16-0.67-0.14-1.39,0.09-2.09c0.4-1.22,1.46-2.16,2.72-2.42
		c2.39-0.5,4.5,1.32,4.5,3.63c0,2.05-1.32,3.25-2.18,3.79c-3.53,2.43-3.33,6.24-3.37,6.85v0.6h3.68v-1.4c0-1.35,0.12-2.29,1.23-3.13
		c2.74-1.98,4.31-3.73,4.31-6.71c0-4.47-3.99-8.02-8.59-7.29c-2.79,0.44-5.15,2.52-5.9,5.25c-0.37,1.33-0.37,2.69-0.03,3.96
		C25.02,12.79,26.39,13.28,27.38,12.63z"/>
	<path d="M30.02,24.53c0,1.01,0.82,1.83,1.83,1.83c1.01,0,1.83-0.82,1.83-1.83c0-1.01-0.82-1.83-1.83-1.83
		C30.84,22.7,30.02,23.52,30.02,24.53z"/>
</g>
</svg>
