<?xml version="1.0" encoding="utf-8"?>
<!-- Generator: Adobe Illustrator 25.3.1, SVG Export Plug-In . SVG Version: 6.00 Build 0)  -->
<svg version="1.1" id="图层_1" xmlns="http://www.w3.org/2000/svg" xmlns:xlink="http://www.w3.org/1999/xlink" x="0px" y="0px"
	 viewBox="0 0 1088 688" style="enable-background:new 0 0 1088 688;" xml:space="preserve">
<style type="text/css">
	.st0{fill:#3F3D56;}
	.st1{fill:#F2F2F2;}
	.st2{opacity:0.1;enable-background:new    ;}
	.st3{fill:#FF6584;}
	.st4{fill:#2F2E41;}
	.st5{fill:#6060E0;}
	.st6{fill:#A8A8A8;}
	.st7{opacity:0.2;enable-background:new    ;}
	.st8{fill:#6C63FF;}
	.st9{fill:#78909C;}
	.st10{fill:#546E7A;}
	.st11{fill:#FF9E80;}
	.st12{fill:#FFFFFF;}
	.st13{clip-path:url(#SVGID_2_);}
	.st14{clip-path:url(#SVGID_9_);}
	.st15{clip-path:url(#SVGID_10_);fill:#546E7A;}
	.st16{clip-path:url(#SVGID_12_);fill:#546E7A;}
</style>
<g id="Group_11" transform="translate(57 56)">
	<path id="Path_83" class="st0" d="M904.8,398.4c-5.3,45.2-16.2,81.4-31.2,110.3c-20,38.5-54.2,54-84.8,70.3
		c-8.8,4.7-18,8.7-27.5,11.9c-55.6,19.3-117.8,14.2-166.7,4c-34.3-7.2-69.1-11.6-104.1-13.2c-10-0.4-20-0.7-30-0.7
		c-15.4,0-293.1,5.3-360.7-131.6c-16.7-33.8-28.1-75-32.2-125.3C56,182.2,119.9,88.8,202.4,27.8c156-115.4,369.8-110.6,523.4,7.9
		C828.2,114.6,924,234,904.8,398.4z"/>
	<path id="Path_84" class="st1" d="M873.6,508.8c-20,38.5-47.2,64-77.8,80.3c-8.8,4.7-18,8.7-27.5,11.9
		c-55.6,19.3-117.8,14.2-166.7,4c-34.3-7.2-69.1-11.6-104.1-13.2c-10-0.4-20-0.7-30-0.7c-15.4,0-30.8,0.6-46.2,1.7
		c-100.2,7.4-253.8-6.4-321.4-143.3L269,122l63,161.6l20.1,51.6l55.4-76L436,220l130.2,149.3L603,288l254.8,207.9l14.2,11.6
		L873.6,508.8z"/>
	<path id="Path_85" class="st2" d="M245,227l26-57l36,83l-31-60L245,227z"/>
	<path id="Path_86" class="st2" d="M497.5,591.8c-10-0.4-20-0.7-30-0.7L352,335.2L497.5,591.8z"/>
	<path id="Path_87" class="st2" d="M407.4,259.2L436,237l130,150L434,259L407.4,259.2z"/>
	<path id="Path_88" class="st2" d="M795.8,589c-8.8,4.7-18,8.7-27.5,11.9L566.2,369.2L795.8,589z"/>
	<circle id="Ellipse_11" class="st1" cx="425" cy="46" r="3"/>
	<circle id="Ellipse_12" class="st1" cx="342" cy="149" r="3"/>
	<circle id="Ellipse_13" class="st1" cx="545" cy="167" r="2"/>
	<circle id="Ellipse_14" class="st1" cx="125" cy="212" r="2"/>
	<circle id="Ellipse_15" class="st1" cx="557" cy="43" r="2"/>
	<circle id="Ellipse_16" class="st1" cx="681" cy="139" r="2"/>
	<circle id="Ellipse_17" class="st1" cx="803" cy="291" r="2"/>
	<path id="Path_89" class="st1" d="M249,65.2h-2.8v-2.8h-1.5v2.8H242v1.5h2.8v2.8h1.5v-2.8h2.8V65.2z"/>
	<path id="Path_90" class="st1" d="M791,368.2h-2.8v-2.8h-1.5v2.8H784v1.5h2.8v2.8h1.5v-2.8h2.8V368.2z"/>
	<path id="Path_91" class="st0" d="M1031,558c0,16.6-243.6,74-544,74s-544-57.4-544-74s243.6,14,544,14S1031,541.4,1031,558z"/>
	<path id="Path_92" class="st2" d="M1031,558c0,16.6-243.6,74-544,74s-544-57.4-544-74s243.6,14,544,14S1031,541.4,1031,558z"/>
	<ellipse id="Ellipse_18" class="st0" cx="487" cy="558" rx="544" ry="30"/>
	<path id="Path_93" class="st3" d="M511,516c0,33.1-14.8,24-33,24s-33,9.1-33-24s33-96,33-96S511,482.8,511,516z"/>
	<path id="Path_94" class="st2" d="M493,528.6c0,15.1-6.7,10.9-15,10.9s-15,4.2-15-10.9s15-43.6,15-43.6S493,513.6,493,528.6z"/>
	<path id="Rectangle_97" class="st4" d="M441,549h74c5,0,9,4,9,9l0,0c0,5-4,9-9,9h-74c-5,0-9-4-9-9l0,0C432,553,436,549,441,549z"/>
	<path id="Rectangle_98" class="st4" d="M441,531h74c5,0,9,4,9,9l0,0c0,5-4,9-9,9h-74c-5,0-9-4-9-9l0,0C432,535,436,531,441,531z"/>
	<path id="Path_95" class="st0" d="M80,434.5c0,55.3,34.7,100.1,77.6,100.1"/>
	<path id="Path_96" class="st5" d="M157.6,534.7c0-56,38.7-101.3,86.6-101.3"/>
	<path id="Path_97" class="st5" d="M108.1,439.5c0,52.6,22.1,95.1,49.5,95.1"/>
	<path id="Path_98" class="st0" d="M157.6,534.7c0-71.5,44.8-129.4,100.1-129.4"/>
	<path id="Path_99" class="st6" d="M141.3,535.4c0,0,11-0.3,14.3-2.7s16.9-5.2,17.8-1.4s16.5,18.8,4.1,18.9s-28.9-1.9-32.2-4
		S141.3,535.4,141.3,535.4z"/>
	<path id="Path_100" class="st7" d="M177.7,548.9c-12.4,0.1-28.9-1.9-32.2-4c-2.5-1.5-3.5-7-3.9-9.6l-0.4,0c0,0,0.7,8.9,4,10.9
		s19.8,4.1,32.2,4c3.6,0,4.8-1.3,4.8-3.2C181.8,548.2,180.4,548.9,177.7,548.9z"/>
	<path id="Path_101" class="st0" d="M664.4,471.1c0,38,23.9,68.8,53.3,68.8"/>
	<path id="Path_102" class="st8" d="M717.8,539.9c0-38.5,26.6-69.6,59.5-69.6"/>
	<path id="Path_103" class="st5" d="M683.8,474.5c0,36.1,15.2,65.4,34,65.4"/>
	<path id="Path_104" class="st0" d="M717.8,539.9c0-49.1,30.8-88.9,68.8-88.9"/>
	<path id="Path_105" class="st6" d="M706.5,540.3c0,0,7.6-0.2,9.8-1.9s11.6-3.6,12.2-1s11.4,12.9,2.8,13s-19.8-1.3-22.1-2.7
		S706.5,540.3,706.5,540.3z"/>
	<path id="Path_106" class="st7" d="M731.6,549.6c-8.5,0.1-19.8-1.3-22.1-2.7c-1.7-1.1-2.4-4.8-2.7-6.6l-0.3,0c0,0,0.5,6.1,2.8,7.5
		s13.6,2.8,22.1,2.7c2.5,0,3.3-0.9,3.3-2.2C734.3,549.1,733.4,549.6,731.6,549.6z"/>
	<path id="Path_107" class="st6" d="M836.8,562.7c0,0,11.4-1.7,14.5-4.6s16.9-7.5,18.2-3.7s19.5,17.4,6.6,19.1s-30.2,1.6-33.8-0.1
		S836.8,562.7,836.8,562.7z"/>
	<path id="Path_108" class="st7" d="M876.2,572.2c-12.9,1.7-30.2,1.6-33.8-0.1c-2.8-1.3-4.5-6.9-5.2-9.5l-0.4,0.1
		c0,0,1.8,9.1,5.5,10.8s21,1.7,33.8,0.1c3.7-0.5,4.8-2,4.5-3.9C880.3,570.9,879,571.8,876.2,572.2z"/>
	<path id="Path_109" class="st6" d="M557.3,561.9c0,0,9.6-1.5,12.2-3.9s14.3-6.3,15.4-3.1s16.5,14.7,5.6,16.1s-25.4,1.4-28.6-0.1
		S557.3,561.9,557.3,561.9z"/>
	<path id="Path_110" class="st7" d="M590.5,569.9c-10.9,1.4-25.4,1.4-28.6-0.1c-2.4-1.1-3.8-5.8-4.4-8l-0.3,0.1c0,0,1.5,7.7,4.7,9.1
		s17.7,1.5,28.6,0.1c3.1-0.4,4.1-1.7,3.8-3.3C594,568.8,592.9,569.6,590.5,569.9z"/>
	<path id="Path_111" class="st6" d="M65.4,557.1c0,0,7.5-1.1,9.5-3s11.1-4.9,12-2.4s12.8,11.5,4.4,12.6s-19.8,1.1-22.2,0
		S65.4,557.1,65.4,557.1z"/>
	<path id="Path_112" class="st7" d="M91.3,563.3c-8.4,1.1-19.8,1.1-22.2,0c-1.8-0.8-3-4.5-3.4-6.2l-0.2,0c0,0,1.2,6,3.6,7.1
		s13.8,1.1,22.2,0c2.4-0.3,3.2-1.3,3-2.6C94,562.5,93.1,563.1,91.3,563.3z"/>
	<path id="Path_113" class="st2" d="M326.7,545.3c0,30.2-42.1,20.9-93.7,20.9s-93.1,9.3-93.1-20.9s42.1-36.8,93.7-36.8
		S326.7,515.1,326.7,545.3z"/>
	<path id="Path_114" class="st0" d="M326.7,537.9c0,30.2-42.1,20.9-93.7,20.9s-93.1,9.3-93.1-20.9c0-30.2,42.1-36.8,93.7-36.8
		S326.7,507.7,326.7,537.9z"/>
</g>
<g>
	<path class="st9" d="M440.5,574.6c-7.7-3.9-25.9-13.4-32.1-18c-2.2-1.7-5.2-4.1-8.6-7h3.4l0,0c34.3,0,62.1-27.8,62.1-62.1
		s-27.8-62.1-62.1-62.1h-20.3l0,0l0,0h-67.2v122.5v1.7v46.6c0,14.2,11.5,25.6,25.6,25.6s25.6-11.5,25.6-25.6v-7.5
		c4.1,3.6,7.9,6.7,10.6,8.7c7,5.2,29.4,16.7,34.9,19.5c0.8,0.4,1.6,0.8,2.5,1.1c11.8,4.6,26.5,5.1,34.6-5.9l0,0
		c6.3-8.6,6.5-19.7,1.4-28.3C448.5,579.9,444.8,576.7,440.5,574.6z"/>
	<path class="st10" d="M293.3,462.7c-7.1,6.7-8.4,17.9-2.2,26.2c6,8.2,17.8,10.4,26.4,5c2.9-1.8,5.2-4.3,6.7-7.1
		c4.7-7.2,26.8-48.8,55.3-61.4C379.4,425.4,338.2,416.1,293.3,462.7z"/>
	<path class="st9" d="M286.9,409.8c-9.6,1.8-16.8,10.5-16.1,20.7c0.6,10.2,9.3,18.4,19.4,18.6c3.4,0.1,6.7-0.8,9.5-2.2
		c7.9-3.5,47.8-25.5,79.8-21.4C379.4,425.4,371.3,400.7,286.9,409.8z"/>
	<path class="st10" d="M429.5,505.6c-4.3,4.9-10.1,8.3-16.7,9.5v-21.5h-10.2v21.5c-6.6-1.2-12.5-4.6-16.7-9.5l-7.2,7.1
		c7.2,8,17.5,13,29.1,13c11.5,0,21.9-5,29.1-13L429.5,505.6z"/>
	<ellipse class="st11" cx="407.7" cy="484.2" rx="15.4" ry="13.8"/>
	<g>
		<g>
			<circle class="st12" cx="388.1" cy="456.5" r="10.6"/>
			<circle cx="393.1" cy="456.5" r="5.6"/>
		</g>
		<g>
			<circle class="st12" cx="427.3" cy="456.5" r="10.6"/>
			<circle cx="432.3" cy="456.5" r="5.6"/>
		</g>
	</g>
	<g>
		<g>
			<defs>
				<path id="SVGID_1_" d="M440.5,574.6c-7.7-3.9-25.9-13.4-32.1-18c-2.2-1.7-5.2-4.1-8.6-7h3.4l0,0c34.3,0,62.1-27.8,62.1-62.1
					s-27.8-62.1-62.1-62.1h-87.6v122.5v1.7v46.6c0,14.2,11.5,25.6,25.6,25.6s25.6-11.5,25.6-25.6v-7.5c4.1,3.6,7.9,6.7,10.6,8.7
					c7,5.2,29.4,16.7,34.9,19.5c0.8,0.4,1.6,0.8,2.5,1.1c11.8,4.6,26.5,5.1,34.6-5.9l0,0c6.3-8.6,6.5-19.7,1.4-28.3
					C448.5,579.9,444.8,576.7,440.5,574.6z"/>
			</defs>
			<clipPath id="SVGID_2_">
				<use xlink:href="#SVGID_1_"  style="overflow:visible;"/>
			</clipPath>
			<g class="st13">
				<g>
					
						<rect id="SVGID_3_" x="445.4" y="580.2" transform="matrix(0.5348 -0.845 0.845 0.5348 -292.4497 657.2093)" class="st10" width="10.6" height="28.1"/>
				</g>
				<g>
					
						<rect id="SVGID_4_" x="437.6" y="598.5" transform="matrix(0.5348 -0.845 0.845 0.5348 -311.61 659.0342)" class="st10" width="10.2" height="28.1"/>
				</g>
				<g>
					<defs>
						
							<rect id="SVGID_5_" x="445.4" y="580.2" transform="matrix(0.5348 -0.845 0.845 0.5348 -292.4497 657.2093)" width="10.6" height="28.1"/>
					</defs>
					<clipPath id="SVGID_6_">
						<use xlink:href="#SVGID_5_"  style="overflow:visible;"/>
					</clipPath>
				</g>
				<g>
					<defs>
						
							<rect id="SVGID_7_" x="445.4" y="580.2" transform="matrix(0.5348 -0.845 0.845 0.5348 -292.4497 657.2093)" width="10.6" height="28.1"/>
					</defs>
					<defs>
						
							<rect id="SVGID_8_" x="437.6" y="598.5" transform="matrix(0.5348 -0.845 0.845 0.5348 -311.61 659.0342)" width="10.2" height="28.1"/>
					</defs>
					<clipPath id="SVGID_9_">
						<use xlink:href="#SVGID_7_"  style="overflow:visible;"/>
					</clipPath>
					<clipPath id="SVGID_10_" class="st14">
						<use xlink:href="#SVGID_8_"  style="overflow:visible;"/>
					</clipPath>
					<path class="st15" d="M440.5,574.6c-7.7-3.9-25.9-13.4-32.1-18c-2.2-1.7-5.2-4.1-8.6-7h3.4l0,0c34.3,0,62.1-27.8,62.1-62.1
						s-27.8-62.1-62.1-62.1h-20.3l0,0l0,0h-67.2v122.5v1.7v46.6c0,14.2,11.5,25.6,25.6,25.6s25.6-11.5,25.6-25.6v-7.5
						c4.1,3.6,7.9,6.7,10.6,8.7c7,5.2,29.4,16.7,34.9,19.5c0.8,0.4,1.6,0.8,2.5,1.1c11.8,4.6,26.5,5.1,34.6-5.9l0,0
						c6.3-8.6,6.5-19.7,1.4-28.3C448.5,579.9,444.8,576.7,440.5,574.6z"/>
				</g>
			</g>
		</g>
	</g>
	<g>
		<g>
			<defs>
				<path id="SVGID_11_" d="M440.5,574.6c-7.7-3.9-25.9-13.4-32.1-18c-2.2-1.7-5.2-4.1-8.6-7h3.4l0,0c34.3,0,62.1-27.8,62.1-62.1
					s-27.8-62.1-62.1-62.1h-87.6v122.5v1.7v46.6c0,14.2,11.5,25.6,25.6,25.6s25.6-11.5,25.6-25.6v-7.5c4.1,3.6,7.9,6.7,10.6,8.7
					c7,5.2,29.4,16.7,34.9,19.5c0.8,0.4,1.6,0.8,2.5,1.1c11.8,4.6,26.5,5.1,34.6-5.9l0,0c6.3-8.6,6.5-19.7,1.4-28.3
					C448.5,579.9,444.8,576.7,440.5,574.6z"/>
			</defs>
			<clipPath id="SVGID_12_">
				<use xlink:href="#SVGID_11_"  style="overflow:visible;"/>
			</clipPath>
			<path class="st16" d="M348.9,572.7c0,0,4.6,13.1,6.7,17.6c1.9,3.9,9.4,15.9,9.4,15.9s8.4-3,2-17.5L348.9,572.7z"/>
		</g>
	</g>
</g>
</svg>
