<?xml version="1.0" encoding="utf-8"?>
<!-- Generator: Adobe Illustrator 25.3.1, SVG Export Plug-In . SVG Version: 6.00 Build 0)  -->
<svg version="1.1" id="图层_1" xmlns="http://www.w3.org/2000/svg" xmlns:xlink="http://www.w3.org/1999/xlink" x="0px" y="0px"
	 viewBox="0 0 1041.3 554.1" style="enable-background:new 0 0 1041.3 554.1;" xml:space="preserve">
<style type="text/css">
	.st0{fill:#F2F2F2;}
	.st1{opacity:0.1;enable-background:new    ;}
	.st2{fill:#65617D;}
	.st3{opacity:0.2;enable-background:new    ;}
	.st4{fill:#3F3D56;}
	.st5{fill:#434351;}
	.st6{fill:#4267B2;}
	.st7{fill:#FBBEBE;}
	.st8{fill:#FF6584;}
	.st9{fill:#61DAFB;}
	.st10{fill:#78909C;}
	.st11{fill:#546E7A;}
	.st12{fill:#FF9E80;}
	.st13{fill:#FFFFFF;}
	.st14{clip-path:url(#SVGID_2_);}
	.st15{clip-path:url(#SVGID_9_);}
	.st16{clip-path:url(#SVGID_10_);fill:#546E7A;}
	.st17{clip-path:url(#SVGID_12_);fill:#546E7A;}
</style>
<path id="Path_299" class="st0" d="M961.5,438.2c-1.2,2.5-2.3,5-3.5,7.4c-1.8,3.8-3.6,7.5-5.3,11.1c-0.8,1.6-1.6,3.2-2.3,4.8
	c-8.6,17.6-16.6,33.1-23.5,45.9c-12.6,23.6-37.1,38.4-63.8,38.7l-151.6,1.7h-1.6l-13,0.1l-11.1,0.1l-34.1,0.4h-1.4l-17.4,0.2h-0.5
	l-107,1.2l-95.5,1l-11.1,0.1l-69,0.8h-0.1l-44.8,0.5h-0.5l-141.5,1.5l-42.3,0.5c-3.6,0-7.2-0.1-10.8-0.5l0,0
	c-1.2-0.1-2.4-0.3-3.6-0.5c-19.7-3-37.8-12.8-51.3-27.5c-18.2-20-31.5-43.4-40.4-68.8c-1.3-3.7-2.5-7.4-3.6-11.1
	c-30.8-104.2,6.8-238.5,74.4-328.4c2.8-3.8,5.7-7.4,8.6-11l0.1-0.1c20.8-25.5,44.1-46.8,68.9-62c44-26.9,92.8-34.5,140.7-11.9
	c40.6,19.1,78.5,28.1,115.2,30.6c3.7,0.2,7.4,0.4,11.1,0.5c84.2,2.6,163.2-27.7,255.9-47.3c3.7-0.8,7.4-1.6,11.1-2.3
	C763,0.5,836.3-6.4,923.6,8.2c9.1,1.5,18,3.6,26.8,6.4c3.8,1.2,7.6,2.6,11.1,4c41.6,16.9,64.3,48.2,74,87.5
	c0.9,3.6,1.7,7.3,2.4,11.1C1054.9,211.5,1004.8,345.3,961.5,438.2z"/>
<path id="Path_300" class="st1" d="M497,445.6c-0.4,3.7-1,7.5-1.9,11.1h93.7v-11.1H497z M418.8,508.4l11.1-0.1v-27.5
	c-3.8-0.2-7.5-0.3-11.1-0.5V508.4z M185.8,445.6v11.1h198.5v-11.1H185.8z M1035.5,106.1h-74V18.6c-3.6-1.4-7.3-2.8-11.1-4v91.5
	H696.9V13.6c-3.7,0.7-7.4,1.5-11.1,2.3v90.1H429.9V63.2c-3.7-0.1-7.4-0.3-11.1-0.5v43.4H162.9v-62c-24.8,15.2-48.1,36.5-68.9,62
	h-0.1v0.1c-2.9,3.6-5.8,7.3-8.6,11h8.6v328.4h-83c1.1,3.8,2.3,7.5,3.6,11.1h79.4v93.6c4,1.2,8.1,2.2,12.2,2.8
	c1.2,0.2,2.4,0.3,3.6,0.5l0,0c3.6,0.4,7.2,0.6,10.8,0.5l42.3-0.5v-97h255.9v94.2l11.1-0.1v-94.1h255.9v91.4l11.1-0.1v-91.2h253.5
	v4.8c0.8-1.6,1.5-3.2,2.3-4.8c1.8-3.6,3.5-7.3,5.3-11.1c1.2-2.4,2.3-4.9,3.5-7.4v-321h76.4C1037.2,113.4,1036.4,109.7,1035.5,106.1z
	 M162.9,445.6V117.1h255.9v328.4H162.9z M429.9,445.6V117.1h255.9v328.4H429.9z M950.4,445.6H696.9V117.1h253.5L950.4,445.6z"/>
<path id="Path_301" class="st2" d="M863.1,533.6v13L711.2,548l-1.6,0l-57.7,0.5l-1.4,0l-17.5,0.2h-0.5l-107,1l-175.6,1.6h-0.1
	l-44.6,0.4l-0.5,0l-198.4,1.8v-15l46.6-28l93.6-0.8l2,0l0.7,0l2,0l44.9-0.4l2,0l0.6,0l2,0l14.4-0.1l0.4,0l35.5-0.3h0.3l277.4-2.3
	l6.8,0h0.7l5.2,0l37.7-0.3l2,0l1.8,0h1l11.7-0.1l2.3,0l3.1,0l9.8-0.1l15.5-0.1l2,0l3.5,0h0.7l74.7-0.6L863.1,533.6z"/>
<path id="Path_302" class="st3" d="M863.1,533.6v13L711.2,548l-1.6,0l-57.7,0.5l-1.4,0l-17.5,0.2h-0.5l-107,1l-175.6,1.6h-0.1
	l-44.6,0.4l-0.5,0l-198.4,1.8v-15l46.6-28l93.6-0.8l2,0l0.7,0l2,0l44.9-0.4l2,0l0.6,0l2,0l14.4-0.1l0.4,0l35.5-0.3h0.3l277.4-2.3
	l6.8,0h0.7l5.2,0l37.7-0.3l2,0l1.8,0h1l11.7-0.1l2.3,0l3.1,0l9.8-0.1l15.5-0.1l2,0l3.5,0h0.7l74.7-0.6L863.1,533.6z"/>
<path id="Path_303" class="st4" d="M296.1,483.6v24.5c0,2.4-1.4,4.5-3.5,5.5c-0.8,0.4-1.6,0.6-2.5,0.6l-34.9,0.7
	c-0.9,0-1.9-0.2-2.7-0.6c-2.2-1-3.6-3.2-3.6-5.6v-25.2H296.1z"/>
<path id="Path_304" class="st1" d="M296.1,483.6v24.5c0,2.4-1.4,4.5-3.5,5.5c-0.8,0.4-1.6,0.6-2.5,0.6l-34.9,0.7
	c-0.9,0-1.9-0.2-2.7-0.6c-2.2-1-3.6-3.2-3.6-5.6v-25.2H296.1z"/>
<path id="Path_305" class="st4" d="M298.1,483.6v24.5c0,2.4-1.4,4.5-3.5,5.5c-0.8,0.4-1.6,0.6-2.5,0.6l-34.9,0.7
	c-0.9,0-1.9-0.2-2.7-0.6c-2.2-1-3.6-3.2-3.6-5.6v-25.2H298.1z"/>
<rect id="Rectangle_137" x="680.9" y="483.6" class="st4" width="47.2" height="31.5"/>
<rect id="Rectangle_138" x="680.9" y="483.6" class="st1" width="47.2" height="31.5"/>
<rect id="Rectangle_139" x="678.9" y="483.6" class="st4" width="47.2" height="31.5"/>
<path id="Path_306" class="st1" d="M298.1,483.6v5l-47.2,1.3v-6.2H298.1z"/>
<path id="Path_307" class="st2" d="M381.3,312.3v168.2c0,2.1-1.7,3.9-3.9,4l-191.6,5.1h0c-2.2,0-3.9-1.8-4-4V312.3
	c0-2.2,1.8-3.9,4-4h191.6C379.6,308.4,381.3,310.2,381.3,312.3L381.3,312.3z"/>
<path id="Path_308" class="st1" d="M185.8,308.4v181.2h0c-2.2,0-3.9-1.8-4-4V312.3C181.9,310.2,183.6,308.4,185.8,308.4L185.8,308.4
	z"/>
<path id="Path_309" class="st5" d="M194.6,319.1h177.5v148.2l-177.5,4V319.1z"/>
<path id="Path_310" class="st1" d="M726.1,483.6v6.4l-47.2-1.3v-5.1H726.1z"/>
<path id="Path_311" class="st2" d="M788.3,312.3v173.3c0,2.2-1.8,4-4,4l0,0l-191.7-5.1c-2.1-0.1-3.8-1.8-3.8-4V312.3
	c0-2.2,1.8-3.9,3.9-4h191.6C786.5,308.4,788.3,310.1,788.3,312.3z"/>
<path id="Path_312" class="st1" d="M788.3,312.3v173.3c0,2.2-1.8,4-4,4l0,0V308.4l0,0C786.5,308.4,788.3,310.1,788.3,312.3
	L788.3,312.3z"/>
<path id="Path_313" class="st5" d="M775.6,319.1H598.1v148.2l177.5,4V319.1z"/>
<path id="Path_314" class="st2" d="M583.8,312.3v168.2c0,2.1-1.7,3.9-3.8,4l-191.6,5.1l0,0c-2.2,0-4-1.8-4-4V312.3
	c0-2.2,1.8-3.9,4-4h191.6C582.1,308.4,583.8,310.2,583.8,312.3z"/>
<path id="Path_315" class="st6" d="M397.1,319.1h177.5v148.2l-177.5,4L397.1,319.1z"/>
<path id="Path_316" class="st1" d="M863.1,533.6v13L711.2,548l-1.6,0l-57.7,0.5l-1.4,0l-17.5,0.2h-0.5l-107,1l-175.6,1.6h-0.1
	l-44.6,0.4l-0.5,0l-198.4,1.8v-15l202.5-1.3h0.5l41-0.3h0.2l283.1-1.9h0.3l0.2,0h0.5l4.8,0h1.5l74.5-0.5l4.4,0l1,0L863.1,533.6z"/>
<circle id="Ellipse_111" class="st7" cx="487.2" cy="298.1" r="51.3"/>
<path id="Path_317" class="st7" d="M538.6,377.1c0,0-99.5,12-90,0c3.4-4.3,4.4-17.2,4.2-31.8c-0.1-4.5-0.2-9.1-0.5-13.6
	c-1.1-22-3.8-43.5-3.8-43.5s87-41,77-8.5c-4,13.1-2.7,31.6,0.3,48.9c0.9,5,1.9,10,3,14.7C531.6,354.7,534.8,366,538.6,377.1z"/>
<path id="Path_318" class="st8" d="M506.1,373.1c11.5-2.1,23.7-6,34.5-1.5c2.8,1.2,5.5,2.9,8.4,3.9s6.1,1.2,9.2,1.9
	c10.7,2.4,19.3,10.5,24.9,20c5.6,9.5,8.4,20.1,11.3,30.7l6.9,25.8c6,22.5,12,45.1,13.4,68.3c-83.5,4.8-167.3,5.3-250.8,1.4
	c5.4-10.3,11-21.3,10.5-33s-7.2-23.2-4.8-34.7c1.5-7.3,6.6-13.4,9.6-20.2c8.8-19.5,1.9-45.8,17.3-60.7c6.9-6.7,17-9.2,26.6-8.9
	c12.3,0.4,24.8,4.2,37,6.1C475.7,374.5,490.4,375.9,506.1,373.1z"/>
<path id="Path_319" class="st1" d="M637,484.2l-0.1,1.4v0.1l-0.2,2.3l-1.3,18.5l-1.6,22.3l-0.5,6.3l-1,13.4v0.2l-107,1l-175.6,1.9
	v0.8h-0.1v-1.1l0.5-14.4l0.9-28.1l0.7-23.8l0.1-2.4c0.2-5.8,5-10.4,10.8-10.2c0.2,0,0.4,0,0.6,0c4.7,0.4,10.9,0.9,18.2,1.4l3,0.2
	c42.3,2.9,120.6,6.7,199.5,2c1.7-0.1,3.3-0.2,5-0.3c12.2-0.8,24.5-1.8,36.6-3c5.8-0.6,11,3.6,11.6,9.4
	C637.1,482.9,637.1,483.6,637,484.2L637,484.2z"/>
<path id="Path_320" class="st4" d="M349.7,552.5v-0.8l175.6-1.9l107-1h0.3v-0.2l1-13.4l0.4-6l1.6-22.6l1.3-17.9v-0.4
	c0.1-0.8,0-1.7-0.1-2.5c0,0,0-0.1,0-0.1c-0.3-1.7-1-3.3-2-4.6c-2.2-2.9-5.8-4.4-9.4-4c-12.1,1.2-24.3,2.2-36.6,3
	c-1.7,0.1-3.3,0.2-5,0.3c-78.9,4.7-157.2,0.9-199.5-2l-3-0.2c-7.3-0.5-13.5-1-18.2-1.4c-5.4-0.5-10.2,3.2-11.2,8.5
	c-0.1,0.5-0.2,1.1-0.2,1.6l-0.7,22.2l-0.9,28.1l-0.4,14.4L349.7,552.5L349.7,552.5z"/>
<path id="Path_321" class="st1" d="M637.3,491.2l-1.2,15.3l-1.8,22.9l-0.5,5.7l-1,12.8l-0.1,0.6v0.2l0,0l-0.2,1.5l0.1-1.5h-0.3
	l-107,1l-175.6,1.9v-0.3l0.5-14.4l1-28.1l0.6-18.7c0.1-2.2,1.2-4.1,3.1-5.2c1.1-0.7,2.5-1,3.8-0.9c2.1,0.2,4.7,0.4,7.7,0.6
	c4.9,0.4,10.9,0.8,17.9,1.2c13,0.8,29.3,1.7,48,2.4c52,2,122.2,2.7,188.9-3.2c3-0.3,6.1-0.5,9.1-0.8c1.2-0.1,2.4,0.1,3.5,0.7
	c0.3,0.2,0.6,0.3,0.9,0.5c0.9,0.6,1.6,1.5,2,2.5c0.1,0.2,0.2,0.4,0.2,0.6C637.3,489.5,637.4,490.4,637.3,491.2z"/>
<path id="Path_322" class="st1" d="M298.1,504.9v3.2c0,2.4-1.4,4.5-3.5,5.5l-40.1,0.8c-2.2-1-3.6-3.2-3.6-5.6v-3L298.1,504.9z"/>
<path id="Path_323" class="st4" d="M298.6,515.5l-52.2,1v-8.7l52.2-1V515.5z"/>
<path id="Path_324" class="st1" d="M298.6,515.5l-52.2,1v-8.7l52.2-1V515.5z"/>
<path id="Path_325" class="st4" d="M300.6,515.5l-52.2,1v-8.7l52.2-1V515.5z"/>
<path id="Path_326" class="st1" d="M679.2,506.9v3.2c0,2.4,1.4,4.5,3.5,5.5l40.1,0.8c2.2-1,3.6-3.2,3.6-5.6v-3L679.2,506.9z"/>
<path id="Path_327" class="st1" d="M678.7,517.5l52.2,1v-8.7l-52.2-1V517.5z"/>
<path id="Path_328" class="st4" d="M676.7,517.5l52.2,1v-8.7l-52.2-1V517.5z"/>
<path id="Path_329" class="st4" d="M454.8,313.8c0.1,7-3.2,13.6-5.9,20.1c-10,23.6-14.3,49.2-12.7,74.7c0.7,11,2.6,22,0.7,32.9
	s-8.4,21.8-19,24.9c17.5,10.5,41.3,9.3,57.8-2.7c8.8-6.4,15.3-15.3,21.8-24.1c-0.8,15.8-5.3,31.1-13.3,44.8
	c29.2-2.6,55.9-17.4,73.5-40.8c4.3-5.8,8.1-12.2,9.7-19.2c3.1-13-1.2-26.5-4.5-39.5c-2.7-10.9-4.8-21.9-6.2-33
	c-0.4-3.6-0.8-7.2,0.1-10.7c1-4.1,3.7-7.5,5.6-11.2c5.6-10.5,5.7-23.3,2.9-34.9s-8.5-22.3-14.1-32.8c-4.5-8.5-9.3-17.3-17.5-22.3
	c-5.1-3.1-11-4.4-16.9-5.6l-25.4-5.4c-5.5-1.2-11.3-2.4-16.9-1.5c-9.5,1.5-16.1,8.3-22,15.3c-4.6,5.5-15.8,15.7-16.6,22.9
	c-0.7,6.6,5.1,17.6,6.1,24.6c1.3,9,2.2,6,7.3,11.5C452.6,305.1,454.7,309.1,454.8,313.8z"/>
<g id="React-icon" transform="translate(906.3 541.56)">
	<path id="Path_330" class="st9" d="M-176.3-145.8c0-5.8-7.3-11.4-18.5-14.8c2.6-11.4,1.4-20.5-3.6-23.4c-1.2-0.7-2.6-1-4-1v4
		c0.7,0,1.4,0.1,2,0.5c2.4,1.4,3.5,6.7,2.7,13.6c-0.2,1.7-0.5,3.5-0.9,5.3c-3.7-0.9-7.6-1.6-11.4-2c-2.3-3.2-4.8-6.1-7.5-9
		c5.8-5.4,11.3-8.4,15.1-8.4v-4l0,0c-4.9,0-11.4,3.5-17.9,9.6c-6.5-6.1-13-9.5-17.9-9.5v4c3.7,0,9.2,3,15.1,8.4
		c-2.7,2.8-5.1,5.8-7.4,8.9c-3.8,0.4-7.7,1.1-11.4,2c-0.4-1.8-0.7-3.5-0.9-5.2c-0.8-6.9,0.2-12.2,2.6-13.6c0.6-0.3,1.3-0.5,2.1-0.5
		v-4l0,0c-1.4,0-2.8,0.3-4.1,1c-5,2.9-6.2,12-3.6,23.3c-11.2,3.4-18.4,8.9-18.4,14.8c0,5.8,7.3,11.4,18.5,14.8
		c-2.6,11.4-1.4,20.5,3.6,23.4c1.2,0.7,2.6,1,4,1c4.9,0,11.4-3.5,17.9-9.6c6.5,6.1,13,9.5,17.9,9.5c1.4,0,2.8-0.3,4.1-1
		c5-2.9,6.2-12,3.6-23.3C-183.6-134.5-176.3-140-176.3-145.8z M-199.7-157.8c-0.7,2.3-1.5,4.7-2.4,7.1c-0.7-1.4-1.5-2.9-2.3-4.3
		c-0.8-1.4-1.7-2.8-2.6-4.2C-204.5-158.8-202-158.4-199.7-157.8L-199.7-157.8z M-207.9-138.7c-1.4,2.4-2.8,4.7-4.3,6.9
		c-2.7,0.2-5.4,0.4-8.1,0.4c-2.7,0-5.4-0.1-8.1-0.3c-1.5-2.1-2.9-4.4-4.3-6.8c-1.4-2.3-2.6-4.7-3.7-7.1c1.1-2.4,2.4-4.8,3.7-7.2
		c1.4-2.4,2.8-4.7,4.3-6.9c2.7-0.2,5.4-0.4,8.1-0.4c2.7,0,5.4,0.1,8.1,0.3c1.5,2.1,2.9,4.4,4.3,6.8c1.4,2.3,2.6,4.7,3.7,7.1
		C-205.3-143.4-206.5-141-207.9-138.7L-207.9-138.7z M-202.1-141c1,2.4,1.8,4.8,2.5,7.1c-2.3,0.6-4.8,1.1-7.4,1.4
		c0.9-1.4,1.8-2.8,2.6-4.2C-203.6-138.1-202.8-139.6-202.1-141L-202.1-141z M-220.3-121.9c-1.8-1.8-3.4-3.7-5-5.7
		c1.6,0.1,3.3,0.1,4.9,0.1c1.7,0,3.4,0,5-0.1C-216.9-125.6-218.5-123.7-220.3-121.9z M-233.6-132.4c-2.5-0.4-5-0.8-7.4-1.4
		c0.7-2.3,1.5-4.7,2.4-7.1c0.7,1.4,1.5,2.9,2.3,4.3S-234.5-133.8-233.6-132.4z M-220.4-169.8c1.8,1.8,3.4,3.7,5,5.7
		c-1.6-0.1-3.3-0.1-4.9-0.1c-1.7,0-3.4,0-5,0.1C-223.8-166-222.1-167.9-220.4-169.8z M-233.6-159.2c-0.9,1.4-1.8,2.8-2.6,4.2
		c-0.8,1.4-1.6,2.9-2.3,4.3c-1-2.4-1.8-4.8-2.5-7.1C-238.7-158.3-236.2-158.8-233.6-159.2z M-249.9-136.8
		c-6.3-2.7-10.5-6.3-10.5-9.1c0-2.8,4.1-6.4,10.5-9.1c1.5-0.7,3.2-1.3,5-1.8c1.1,3.7,2.4,7.4,4,10.9c-1.6,3.5-2.9,7.2-4,10.9
		C-246.6-135.5-248.3-136.1-249.9-136.8L-249.9-136.8z M-240.2-111.1c-2.4-1.4-3.5-6.7-2.7-13.6c0.2-1.7,0.5-3.5,0.9-5.3
		c3.7,0.9,7.6,1.6,11.4,2c2.3,3.2,4.8,6.1,7.5,9c-5.8,5.4-11.3,8.4-15.1,8.4C-238.9-110.6-239.6-110.8-240.2-111.1L-240.2-111.1z
		 M-197.7-124.8c0.8,6.9-0.2,12.2-2.6,13.6c-0.6,0.3-1.3,0.5-2.1,0.5c-3.7,0-9.2-3-15.1-8.4c2.7-2.8,5.1-5.8,7.4-8.9
		c3.8-0.4,7.7-1.1,11.4-2C-198.2-128.3-197.9-126.5-197.7-124.8L-197.7-124.8z M-190.8-136.8c-1.5,0.7-3.2,1.3-5,1.8
		c-1.1-3.7-2.4-7.4-4-10.9c1.6-3.5,2.9-7.2,4-10.9c1.8,0.6,3.5,1.2,5,1.8c6.3,2.7,10.5,6.3,10.5,9.1
		C-180.3-143-184.4-139.4-190.8-136.8L-190.8-136.8z"/>
	<path id="Path_331" class="st9" d="M-238.3-184.9"/>
	<circle id="Ellipse_112" class="st9" cx="-220.3" cy="-145.8" r="8.2"/>
	<path id="Path_332" class="st9" d="M-202.5-185"/>
</g>
<g>
	<path class="st10" d="M309.9,417.6c-2.8-1.4-9.5-4.9-11.7-6.6c-0.8-0.6-1.9-1.5-3.1-2.6h1.2l0,0c12.6,0,22.7-10.2,22.7-22.7
		c0-12.6-10.2-22.8-22.8-22.8h-7.4l0,0l0,0h-24.6v44.9v0.6v17.1c0,5.2,4.2,9.4,9.4,9.4c5.2,0,9.4-4.2,9.4-9.4v-2.7
		c1.5,1.3,2.9,2.5,3.9,3.2c2.6,1.9,10.8,6.1,12.8,7.2c0.3,0.2,0.6,0.3,0.9,0.4c4.3,1.7,9.7,1.9,12.7-2.2l0,0
		c2.3-3.1,2.4-7.2,0.5-10.4C312.8,419.5,311.4,418.4,309.9,417.6z"/>
	<path class="st11" d="M256,376.6c-2.6,2.5-3.1,6.6-0.8,9.6c2.2,3,6.5,3.8,9.7,1.8c1.1-0.7,1.9-1.6,2.5-2.6
		c1.7-2.6,9.8-17.9,20.2-22.5C287.5,363,272.4,359.6,256,376.6z"/>
	<path class="st10" d="M253.6,357.3c-3.5,0.7-6.1,3.8-5.9,7.6c0.2,3.7,3.4,6.7,7.1,6.8c1.3,0,2.4-0.3,3.5-0.8
		c2.9-1.3,17.5-9.3,29.2-7.8C287.5,363,284.5,353.9,253.6,357.3z"/>
	<path class="st11" d="M305.9,392.4c-1.6,1.8-3.7,3-6.1,3.5V388H296v7.9c-2.4-0.4-4.6-1.7-6.1-3.5l-2.6,2.6
		c2.6,2.9,6.4,4.8,10.6,4.8s8-1.8,10.6-4.8L305.9,392.4z"/>
	<ellipse class="st12" cx="297.9" cy="384.5" rx="5.6" ry="5.1"/>
	<g>
		<g>
			<circle class="st13" cx="290.7" cy="374.4" r="3.9"/>
			<circle cx="292.5" cy="374.4" r="2.1"/>
		</g>
		<g>
			<circle class="st13" cx="305.1" cy="374.4" r="3.9"/>
			<circle cx="306.9" cy="374.4" r="2.1"/>
		</g>
	</g>
	<g>
		<g>
			<defs>
				<path id="SVGID_1_" d="M309.9,417.6c-2.8-1.4-9.5-4.9-11.7-6.6c-0.8-0.6-1.9-1.5-3.1-2.6h1.2l0,0c12.6,0,22.7-10.2,22.7-22.7
					c0-12.6-10.2-22.8-22.8-22.8h-32.1v44.9v0.6v17.1c0,5.2,4.2,9.4,9.4,9.4c5.2,0,9.4-4.2,9.4-9.4v-2.7c1.5,1.3,2.9,2.5,3.9,3.2
					c2.6,1.9,10.8,6.1,12.8,7.2c0.3,0.2,0.6,0.3,0.9,0.4c4.3,1.7,9.7,1.9,12.7-2.2l0,0c2.3-3.1,2.4-7.2,0.5-10.4
					C312.8,419.5,311.4,418.4,309.9,417.6z"/>
			</defs>
			<clipPath id="SVGID_2_">
				<use xlink:href="#SVGID_1_"  style="overflow:visible;"/>
			</clipPath>
			<g class="st14">
				<g>
					
						<rect id="SVGID_3_" x="311.6" y="419.6" transform="matrix(0.5348 -0.845 0.845 0.5348 -213.06 462.5906)" class="st11" width="3.9" height="10.3"/>
				</g>
				<g>
					
						<rect id="SVGID_4_" x="308.8" y="426.4" transform="matrix(0.5348 -0.845 0.845 0.5348 -220.0765 463.2589)" class="st11" width="3.7" height="10.3"/>
				</g>
				<g>
					<defs>
						
							<rect id="SVGID_5_" x="311.6" y="419.6" transform="matrix(0.5348 -0.845 0.845 0.5348 -213.06 462.5906)" width="3.9" height="10.3"/>
					</defs>
					<clipPath id="SVGID_6_">
						<use xlink:href="#SVGID_5_"  style="overflow:visible;"/>
					</clipPath>
				</g>
				<g>
					<defs>
						
							<rect id="SVGID_7_" x="311.6" y="419.6" transform="matrix(0.5348 -0.845 0.845 0.5348 -213.06 462.5906)" width="3.9" height="10.3"/>
					</defs>
					<defs>
						
							<rect id="SVGID_8_" x="308.8" y="426.4" transform="matrix(0.5348 -0.845 0.845 0.5348 -220.0765 463.2589)" width="3.7" height="10.3"/>
					</defs>
					<clipPath id="SVGID_9_">
						<use xlink:href="#SVGID_7_"  style="overflow:visible;"/>
					</clipPath>
					<clipPath id="SVGID_10_" class="st15">
						<use xlink:href="#SVGID_8_"  style="overflow:visible;"/>
					</clipPath>
					<path class="st16" d="M309.9,417.6c-2.8-1.4-9.5-4.9-11.7-6.6c-0.8-0.6-1.9-1.5-3.1-2.6h1.2l0,0c12.6,0,22.7-10.2,22.7-22.7
						S308.8,363,296.2,363h-7.4l0,0l0,0h-24.6v44.9v0.6v17.1c0,5.2,4.2,9.4,9.4,9.4c5.2,0,9.4-4.2,9.4-9.4v-2.7
						c1.5,1.3,2.9,2.5,3.9,3.2c2.6,1.9,10.8,6.1,12.8,7.2c0.3,0.2,0.6,0.3,0.9,0.4c4.3,1.7,9.7,1.9,12.7-2.2l0,0
						c2.3-3.1,2.4-7.2,0.5-10.4C312.8,419.5,311.4,418.4,309.9,417.6z"/>
				</g>
			</g>
		</g>
	</g>
	<g>
		<g>
			<defs>
				<path id="SVGID_11_" d="M309.9,417.6c-2.8-1.4-9.5-4.9-11.7-6.6c-0.8-0.6-1.9-1.5-3.1-2.6h1.2l0,0c12.6,0,22.7-10.2,22.7-22.7
					c0-12.6-10.2-22.8-22.8-22.8h-32.1v44.9v0.6v17.1c0,5.2,4.2,9.4,9.4,9.4c5.2,0,9.4-4.2,9.4-9.4v-2.7c1.5,1.3,2.9,2.5,3.9,3.2
					c2.6,1.9,10.8,6.1,12.8,7.2c0.3,0.2,0.6,0.3,0.9,0.4c4.3,1.7,9.7,1.9,12.7-2.2l0,0c2.3-3.1,2.4-7.2,0.5-10.4
					C312.8,419.5,311.4,418.4,309.9,417.6z"/>
			</defs>
			<clipPath id="SVGID_12_">
				<use xlink:href="#SVGID_11_"  style="overflow:visible;"/>
			</clipPath>
			<path class="st17" d="M276.3,416.9c0,0,1.7,4.8,2.5,6.4c0.7,1.4,3.4,5.8,3.4,5.8s3.1-1.1,0.7-6.4L276.3,416.9z"/>
		</g>
	</g>
</g>
</svg>
