<?xml version="1.0" encoding="utf-8"?>
<!-- Generator: Adobe Illustrator 25.3.1, SVG Export Plug-In . SVG Version: 6.00 Build 0)  -->
<svg version="1.1" id="图层_1" xmlns="http://www.w3.org/2000/svg" xmlns:xlink="http://www.w3.org/1999/xlink" x="0px" y="0px"
	 viewBox="0 0 1129 663" style="enable-background:new 0 0 1129 663;" xml:space="preserve">
<style type="text/css">
	.st0{fill:#F2F2F2;}
	.st1{fill:#3F3D56;}
	.st2{opacity:0.2;enable-background:new    ;}
	.st3{fill:#4B4B59;}
	.st4{fill:#6060E0;}
	.st5{fill:#5656CA;}
	.st6{fill-rule:evenodd;clip-rule:evenodd;fill:#6060E0;}
	.st7{opacity:0.1;enable-background:new    ;}
	.st8{fill:#78909C;}
	.st9{fill:#546E7A;}
	.st10{fill:#FF9E80;}
	.st11{fill:#FFFFFF;}
	.st12{clip-path:url(#SVGID_2_);}
	.st13{clip-path:url(#SVGID_9_);}
	.st14{clip-path:url(#SVGID_10_);fill:#546E7A;}
	.st15{clip-path:url(#SVGID_12_);fill:#546E7A;}
</style>
<circle class="st0" cx="321" cy="321" r="321"/>
<ellipse class="st1" cx="559" cy="635.5" rx="514" ry="27.5"/>
<ellipse class="st2" cx="558" cy="627" rx="460" ry="22"/>
<rect x="131" y="152.5" class="st1" width="840" height="50"/>
<path class="st1" d="M131,608.8c0,12,9.7,21.7,21.7,21.7c0,0,0,0,0,0h796.7c12,0,21.7-9.7,21.7-21.7c0,0,0,0,0,0V177.5H131V608.8z"
	/>
<path class="st1" d="M949.3,117.5H152.7c-12,0-21.7,9.7-21.7,21.7v0v38.3h840v-38.3C971,127.2,961.3,117.5,949.3,117.5
	C949.3,117.5,949.3,117.5,949.3,117.5z"/>
<path class="st2" d="M949.3,117.5H152.7c-12,0-21.7,9.7-21.7,21.7v0v38.3h840v-38.3C971,127.2,961.3,117.5,949.3,117.5
	C949.3,117.5,949.3,117.5,949.3,117.5z"/>
<circle class="st1" cx="181" cy="147.5" r="13"/>
<circle class="st1" cx="217" cy="147.5" r="13"/>
<circle class="st1" cx="253" cy="147.5" r="13"/>
<path class="st3" d="M173.3,213.5h326.3c2.9,0,5.3,2.4,5.3,5.3v375.3c0,2.9-2.4,5.3-5.3,5.3H173.3c-2.9,0-5.3-2.4-5.3-5.3V218.8
	C168,215.9,170.4,213.5,173.3,213.5z"/>
<path class="st4" d="M608.5,272.5h273c3,0,5.5,2.5,5.5,5.5v11c0,3-2.5,5.5-5.5,5.5h-273c-3,0-5.5-2.5-5.5-5.5v-11
	C603,275,605.5,272.5,608.5,272.5z"/>
<path class="st4" d="M542.5,352.5h405c3,0,5.5,2.5,5.5,5.5v4c0,3-2.5,5.5-5.5,5.5h-405c-3,0-5.5-2.5-5.5-5.5v-4
	C537,355,539.5,352.5,542.5,352.5z"/>
<path class="st4" d="M542.5,396.5h405c3,0,5.5,2.5,5.5,5.5v4c0,3-2.5,5.5-5.5,5.5h-405c-3,0-5.5-2.5-5.5-5.5v-4
	C537,399,539.5,396.5,542.5,396.5z"/>
<path class="st4" d="M542.5,440.5h405c3,0,5.5,2.5,5.5,5.5v4c0,3-2.5,5.5-5.5,5.5h-405c-3,0-5.5-2.5-5.5-5.5v-4
	C537,443,539.5,440.5,542.5,440.5z"/>
<path class="st4" d="M542.5,484.5h405c3,0,5.5,2.5,5.5,5.5v4c0,3-2.5,5.5-5.5,5.5h-405c-3,0-5.5-2.5-5.5-5.5v-4
	C537,487,539.5,484.5,542.5,484.5z"/>
<path class="st5" d="M872,552.5H946c3.9,0,7,3.1,7,7v11.9c0,3.9-3.1,7-7,7H872c-3.9,0-7-3.1-7-7v-11.9
	C865,555.6,868.1,552.5,872,552.5z"/>
<path class="st1" d="M1053.1,506.1c2.7-4.6,4-9.9,4-15.3c0-13.8-8.5-25-19.1-25s-19.1,11.2-19.1,25c-0.1,5.4,1.3,10.6,4,15.3
	c-5.3,9.5-5.3,21,0,30.5c-5.3,9.5-5.3,21,0,30.5c-5.3,9.5-5.3,21,0,30.5c-2.7,4.6-4,9.9-4,15.3c0,13.8,8.5,25,19.1,25
	s19.1-11.2,19.1-25c0.1-5.4-1.3-10.6-4-15.3c5.3-9.5,5.3-21,0-30.5c5.3-9.5,5.3-21,0-30.5C1058.4,527.2,1058.4,515.6,1053.1,506.1z"
	/>
<ellipse class="st1" cx="1038" cy="460.3" rx="19.1" ry="25"/>
<ellipse class="st1" cx="1038" cy="429.8" rx="19.1" ry="25"/>
<path class="st6" d="M1109.4,220.8c2.6-3.3,5-6.8,7.1-10.5l-50.1-8.2l54.2,0.4c10.5-22.9,11.1-49.1,1.7-72.4l-72.8,37.7l67.1-49.3
	c-25.3-43.7-81.2-58.6-124.9-33.3c-43.7,25.3-58.6,81.2-33.3,124.9c2.2,3.7,4.6,7.3,7.3,10.7c-4.1,5.2-7.6,10.8-10.4,16.7l65.1,33.8
	L951,248c-9.9,29.3-4.4,61.6,14.7,85.8c-31.2,39.7-24.3,97.1,15.3,128.4c39.7,31.2,97.1,24.3,128.4-15.3c26.1-33.2,26.1-79.9,0-113
	C1135.5,300.7,1135.5,254,1109.4,220.8z"/>
<path class="st7" d="M946.2,277.4c0,20.5,6.9,40.4,19.6,56.5c-31.2,39.7-24.3,97.1,15.3,128.4c39.7,31.2,97.1,24.3,128.4-15.3
	c26.1-33.2,26.1-79.9,0-113C1121.7,318.3,946.2,267.1,946.2,277.4z"/>
<g>
	<path class="st8" d="M407.4,477.3c-9.1-4.7-30.7-15.9-38-21.3c-2.7-2-6.2-4.9-10.2-8.3h4l0,0c40.6,0,73.6-32.9,73.6-73.6
		s-32.9-73.6-73.6-73.6h-24.1l0,0l0,0h-79.7v145.1v2.1v55.2c0,16.8,13.6,30.4,30.4,30.4c16.8,0,30.4-13.6,30.4-30.4v-8.9
		c4.9,4.3,9.4,8,12.6,10.3c8.3,6.2,34.8,19.8,41.3,23.1c0.9,0.5,1.9,0.9,2.9,1.3c14,5.4,31.4,6,41-7l0,0c7.5-10.1,7.7-23.3,1.7-33.5
		C416.8,483.5,412.4,479.8,407.4,477.3z"/>
	<path class="st9" d="M233,344.8c-8.4,8-9.9,21.2-2.7,31c7.2,9.7,21.1,12.3,31.3,5.9c3.4-2.1,6.1-5.1,8-8.4
		c5.6-8.5,31.7-57.9,65.4-72.7C335,300.6,286.2,289.6,233,344.8z"/>
	<path class="st8" d="M225.4,282.1c-11.4,2.1-19.9,12.4-19.1,24.5c0.7,12,11,21.8,23,22c4.1,0.1,7.9-0.9,11.2-2.7
		c9.3-4.1,56.7-30.2,94.5-25.3C335,300.6,325.4,271.3,225.4,282.1z"/>
	<path class="st9" d="M394.4,395.6c-5.1,5.8-12,9.8-19.8,11.2v-25.4h-12.1v25.4c-7.9-1.4-14.8-5.4-19.8-11.2l-8.6,8.4
		c8.5,9.4,20.8,15.4,34.4,15.4c13.7,0,25.9-6,34.4-15.4L394.4,395.6z"/>
	<ellipse class="st10" cx="368.5" cy="370.2" rx="18.2" ry="16.3"/>
	<g>
		<g>
			<circle class="st11" cx="345.2" cy="337.4" r="12.6"/>
			<circle cx="351.2" cy="337.4" r="6.6"/>
		</g>
		<g>
			<circle class="st11" cx="391.8" cy="337.4" r="12.6"/>
			<circle cx="397.7" cy="337.4" r="6.6"/>
		</g>
	</g>
	<g>
		<g>
			<defs>
				<path id="SVGID_1_" d="M407.4,477.3c-9.1-4.7-30.7-15.9-38-21.3c-2.7-2-6.2-4.9-10.2-8.3h4l0,0c40.6,0,73.6-32.9,73.6-73.6
					s-32.9-73.6-73.6-73.6H259.5v145.1v2.1v55.2c0,16.8,13.6,30.4,30.4,30.4c16.8,0,30.4-13.6,30.4-30.4v-8.9
					c4.9,4.3,9.4,8,12.6,10.3c8.3,6.2,34.8,19.8,41.3,23.1c0.9,0.5,1.9,0.9,2.9,1.3c14,5.4,31.4,6,41-7l0,0
					c7.5-10.1,7.7-23.3,1.7-33.5C416.8,483.5,412.4,479.8,407.4,477.3z"/>
			</defs>
			<clipPath id="SVGID_2_">
				<use xlink:href="#SVGID_1_"  style="overflow:visible;"/>
			</clipPath>
			<g class="st12">
				<g>
					
						<rect id="SVGID_3_" x="413.1" y="483.9" transform="matrix(0.5348 -0.845 0.845 0.5348 -227.8336 587.1957)" class="st9" width="12.5" height="33.3"/>
				</g>
				<g>
					
						<rect id="SVGID_4_" x="403.9" y="505.6" transform="matrix(0.5348 -0.845 0.845 0.5348 -250.529 589.3574)" class="st9" width="12.1" height="33.3"/>
				</g>
				<g>
					<defs>
						
							<rect id="SVGID_5_" x="413.1" y="483.9" transform="matrix(0.5348 -0.845 0.845 0.5348 -227.8336 587.1957)" width="12.5" height="33.3"/>
					</defs>
					<clipPath id="SVGID_6_">
						<use xlink:href="#SVGID_5_"  style="overflow:visible;"/>
					</clipPath>
				</g>
				<g>
					<defs>
						
							<rect id="SVGID_7_" x="413.1" y="483.9" transform="matrix(0.5348 -0.845 0.845 0.5348 -227.8336 587.1957)" width="12.5" height="33.3"/>
					</defs>
					<defs>
						
							<rect id="SVGID_8_" x="403.9" y="505.6" transform="matrix(0.5348 -0.845 0.845 0.5348 -250.529 589.3573)" width="12.1" height="33.3"/>
					</defs>
					<clipPath id="SVGID_9_">
						<use xlink:href="#SVGID_7_"  style="overflow:visible;"/>
					</clipPath>
					<clipPath id="SVGID_10_" class="st13">
						<use xlink:href="#SVGID_8_"  style="overflow:visible;"/>
					</clipPath>
					<path class="st14" d="M407.4,477.3c-9.1-4.7-30.7-15.9-38-21.3c-2.7-2-6.2-4.9-10.2-8.3h4l0,0c40.6,0,73.6-32.9,73.6-73.6
						s-32.9-73.6-73.6-73.6h-24.1l0,0l0,0h-79.7v145.1v2.1v55.2c0,16.8,13.6,30.4,30.4,30.4c16.8,0,30.4-13.6,30.4-30.4v-8.9
						c4.9,4.3,9.4,8,12.6,10.3c8.3,6.2,34.8,19.8,41.3,23.1c0.9,0.5,1.9,0.9,2.9,1.3c14,5.4,31.4,6,41-7l0,0
						c7.5-10.1,7.7-23.3,1.7-33.5C416.8,483.5,412.4,479.8,407.4,477.3z"/>
				</g>
			</g>
		</g>
	</g>
	<g>
		<g>
			<defs>
				<path id="SVGID_11_" d="M407.4,477.3c-9.1-4.7-30.7-15.9-38-21.3c-2.7-2-6.2-4.9-10.2-8.3h4l0,0c40.6,0,73.6-32.9,73.6-73.6
					s-32.9-73.6-73.6-73.6H259.5v145.1v2.1v55.2c0,16.8,13.6,30.4,30.4,30.4c16.8,0,30.4-13.6,30.4-30.4v-8.9
					c4.9,4.3,9.4,8,12.6,10.3c8.3,6.2,34.8,19.8,41.3,23.1c0.9,0.5,1.9,0.9,2.9,1.3c14,5.4,31.4,6,41-7l0,0
					c7.5-10.1,7.7-23.3,1.7-33.5C416.8,483.5,412.4,479.8,407.4,477.3z"/>
			</defs>
			<clipPath id="SVGID_12_">
				<use xlink:href="#SVGID_11_"  style="overflow:visible;"/>
			</clipPath>
			<path class="st15" d="M298.8,475.1c0,0,5.4,15.6,8,20.8c2.2,4.6,11.1,18.8,11.1,18.8s10-3.6,2.4-20.7L298.8,475.1z"/>
		</g>
	</g>
</g>
</svg>
