<?xml version="1.0" encoding="utf-8"?>
<!-- Generator: Adobe Illustrator 25.3.1, SVG Export Plug-In . SVG Version: 6.00 Build 0)  -->
<svg version="1.1" id="图层_1" xmlns="http://www.w3.org/2000/svg" xmlns:xlink="http://www.w3.org/1999/xlink" x="0px" y="0px"
	 viewBox="0 0 81.27 89.68" style="enable-background:new 0 0 81.27 89.68;" xml:space="preserve">
<style type="text/css">
	.st0{fill:#546E7A;}
	.st1{fill:#78909C;}
	.st2{fill:#FFFFFF;}
	.st3{fill:#FF9E80;}
	.st4{clip-path:url(#SVGID_2_);}
	.st5{clip-path:url(#SVGID_5_);}
	.st6{clip-path:url(#SVGID_6_);fill:#546E7A;}
	.st7{clip-path:url(#SVGID_8_);fill:#546E7A;}
</style>
<g>
	<path class="st1" d="M68.7,67.97c-2.97-1.52-10.03-5.2-12.41-6.96c-0.87-0.64-2.03-1.59-3.32-2.7h1.3v0
		c13.27,0,24.03-10.76,24.03-24.03S67.54,10.24,54.26,10.24H46.4l0,0l0,0H20.38v47.4v0.67v18.04c0,5.48,4.44,9.92,9.92,9.92
		c5.48,0,9.92-4.44,9.92-9.92v-2.9c1.6,1.4,3.06,2.61,4.1,3.38c2.72,2.01,11.38,6.48,13.49,7.56c0.31,0.16,0.62,0.31,0.95,0.43
		c4.58,1.77,10.25,1.97,13.39-2.28v0c2.44-3.31,2.52-7.62,0.55-10.95C71.76,70.01,70.33,68.8,68.7,67.97z"/>
	<path class="st0" d="M11.73,24.69c-2.74,2.6-3.24,6.93-0.87,10.12c2.34,3.16,6.89,4.01,10.22,1.92c1.12-0.7,2-1.65,2.6-2.73
		c1.83-2.78,10.37-18.9,21.38-23.76C45.06,10.24,29.11,6.65,11.73,24.69z"/>
	<path class="st1" d="M9.23,4.2c-3.71,0.69-6.49,4.05-6.24,8.01c0.24,3.93,3.59,7.12,7.52,7.18c1.33,0.02,2.58-0.3,3.67-0.87
		c3.05-1.34,18.51-9.85,30.87-8.28C45.06,10.24,41.91,0.69,9.23,4.2z"/>
	<path class="st0" d="M64.44,41.29c-1.65,1.88-3.91,3.2-6.48,3.66v-8.31h-3.94v8.31c-2.57-0.46-4.83-1.77-6.48-3.66l-2.8,2.76
		c2.78,3.08,6.79,5.03,11.25,5.03c4.46,0,8.47-1.95,11.25-5.03L64.44,41.29z"/>
	<ellipse class="st3" cx="55.99" cy="32.98" rx="5.96" ry="5.34"/>
	<g>
		<g>
			<circle class="st2" cx="48.39" cy="22.29" r="4.1"/>
			<circle cx="50.33" cy="22.29" r="2.17"/>
		</g>
		<g>
			<circle class="st2" cx="63.59" cy="22.29" r="4.1"/>
			<circle cx="65.52" cy="22.29" r="2.17"/>
		</g>
	</g>
	<g>
		<defs>
			<path id="SVGID_1_" d="M68.7,67.97c-2.97-1.52-10.03-5.2-12.41-6.96c-0.87-0.64-2.03-1.59-3.32-2.7h1.3v0
				c13.27,0,24.03-10.76,24.03-24.03S67.54,10.24,54.26,10.24H20.38v47.4v0.67v18.04c0,5.48,4.44,9.92,9.92,9.92
				c5.48,0,9.92-4.44,9.92-9.92v-2.9c1.6,1.4,3.06,2.61,4.1,3.38c2.72,2.01,11.38,6.48,13.49,7.56c0.31,0.16,0.62,0.31,0.95,0.43
				c4.58,1.77,10.25,1.97,13.39-2.28v0c2.44-3.31,2.52-7.62,0.55-10.95C71.76,70.01,70.33,68.8,68.7,67.97z"/>
		</defs>
		<clipPath id="SVGID_2_">
			<use xlink:href="#SVGID_1_"  style="overflow:visible;"/>
		</clipPath>
		<g class="st4">
			<defs>
				
					<rect id="SVGID_3_" x="70.56" y="70.12" transform="matrix(0.5348 -0.845 0.845 0.5348 -30.0672 96.5031)" width="4.09" height="10.87"/>
			</defs>
			<defs>
				
					<rect id="SVGID_4_" x="67.57" y="77.21" transform="matrix(0.5348 -0.845 0.845 0.5348 -37.4848 97.2078)" width="3.94" height="10.87"/>
			</defs>
			<use xlink:href="#SVGID_3_"  style="overflow:visible;fill:#546E7A;"/>
			<use xlink:href="#SVGID_4_"  style="overflow:visible;fill:#546E7A;"/>
			<clipPath id="SVGID_5_">
				<use xlink:href="#SVGID_3_"  style="overflow:visible;"/>
			</clipPath>
			<clipPath id="SVGID_6_" class="st5">
				<use xlink:href="#SVGID_4_"  style="overflow:visible;"/>
			</clipPath>
			<path class="st6" d="M68.7,67.97c-2.97-1.52-10.03-5.2-12.41-6.96c-0.87-0.64-2.03-1.59-3.32-2.7h1.3v0
				c13.27,0,24.03-10.76,24.03-24.03S67.54,10.24,54.26,10.24H46.4l0,0l0,0H20.38v47.4v0.67v18.04c0,5.48,4.44,9.92,9.92,9.92
				c5.48,0,9.92-4.44,9.92-9.92v-2.9c1.6,1.4,3.06,2.61,4.1,3.38c2.72,2.01,11.38,6.48,13.49,7.56c0.31,0.16,0.62,0.31,0.95,0.43
				c4.58,1.77,10.25,1.97,13.39-2.28v0c2.44-3.31,2.52-7.62,0.55-10.95C71.76,70.01,70.33,68.8,68.7,67.97z"/>
		</g>
	</g>
	<g>
		<defs>
			<path id="SVGID_7_" d="M68.7,67.97c-2.97-1.52-10.03-5.2-12.41-6.96c-0.87-0.64-2.03-1.59-3.32-2.7h1.3v0
				c13.27,0,24.03-10.76,24.03-24.03S67.54,10.24,54.26,10.24H20.38v47.4v0.67v18.04c0,5.48,4.44,9.92,9.92,9.92
				c5.48,0,9.92-4.44,9.92-9.92v-2.9c1.6,1.4,3.06,2.61,4.1,3.38c2.72,2.01,11.38,6.48,13.49,7.56c0.31,0.16,0.62,0.31,0.95,0.43
				c4.58,1.77,10.25,1.97,13.39-2.28v0c2.44-3.31,2.52-7.62,0.55-10.95C71.76,70.01,70.33,68.8,68.7,67.97z"/>
		</defs>
		<clipPath id="SVGID_8_">
			<use xlink:href="#SVGID_7_"  style="overflow:visible;"/>
		</clipPath>
		<path class="st7" d="M33.22,67.25c0,0,1.77,5.08,2.6,6.81c0.73,1.51,3.62,6.14,3.62,6.14s3.26-1.17,0.78-6.76L33.22,67.25z"/>
	</g>
</g>
</svg>
